<svg width="159" height="158" viewBox="0 0 159 158" fill="none" xmlns="http://www.w3.org/2000/svg">
<g clip-path="url(#clip0_133_560)">
<path fill-rule="evenodd" clip-rule="evenodd" d="M123.311 83.6955L118.926 80.3592L112.063 54.0396L105.771 80.3592L101.424 83.6955H85.105L75.1151 124.266H66.3072L48.8058 53.9984L42.5906 80.318L37.5576 83.6543H6.86331C26.2712 128.921 79.4619 158 79.4619 158C79.4619 158 132.653 128.921 152.06 83.6955H123.311ZM34.4691 74.2633L44.459 33.7748H53.2288L70.7683 104.002L76.9835 77.682L81.3683 74.3045H97.6115L107.64 33.816H117.019L127.047 74.3045H155.873C157.704 66.8905 159 59.4353 159 52.0214C159 22.9421 138.296 0 113.245 0C100.128 0 88.2698 6.79614 79.5 16.8462C71.3403 6.79614 59.4439 0 45.6791 0C20.7043 0 0 22.9421 0 51.9802C0 59.3942 1.25827 66.8493 3.12662 74.2633H34.4691Z" fill="#D90429"/>
</g>
<defs>
<clipPath id="clip0_133_560">
<rect width="159" height="158" fill="white"/>
</clipPath>
</defs>
</svg>
