<svg width="270" height="204" viewBox="0 0 270 204" fill="none" xmlns="http://www.w3.org/2000/svg">
<path d="M57.8984 203.984V178.788H75.3215L95.9612 111.24C97.5694 105.879 100.563 101.501 104.941 98.1056C109.319 94.7103 114.367 93.0126 120.085 93.0126H149.571C155.289 93.0126 160.337 94.7103 164.715 98.1056C169.094 101.501 172.087 105.879 173.695 111.24L194.335 178.788H211.758V203.984H57.8984ZM122.23 57.6303V0L147.426 0V57.6303H122.23ZM195.943 88.9919L177.984 71.0327L218.727 30.2894L236.418 48.2486L195.943 88.9919ZM212.294 141.529V116.333H269.656V141.529H212.294ZM73.7132 88.9919L33.2379 48.2486L50.9291 30.2894L91.9404 71.0327L73.7132 88.9919ZM0 141.529L0 116.333H57.6303V141.529H0Z" fill="white" fill-opacity="0.16"/>
</svg>
